<?xml version="1.0" encoding="utf-8"?>
<!-- Generator: Adobe Illustrator 16.0.0, SVG Export Plug-In . SVG Version: 6.00 Build 0)  -->
<!DOCTYPE svg PUBLIC "-//W3C//DTD SVG 1.1 Tiny//EN" "http://www.w3.org/Graphics/SVG/1.1/DTD/svg11-tiny.dtd">
<svg version="1.1" baseProfile="tiny" id="Layer_1" xmlns="http://www.w3.org/2000/svg" xmlns:xlink="http://www.w3.org/1999/xlink"
	 x="0px" y="0px" width="100px" height="100px" viewBox="0 0 100 100" xml:space="preserve">
<g>
	<circle fill="#00CCFF" cx="50.309" cy="50.477" r="47.143"/>
	<g id="He8dFa_1_">
		<g>
			<path fill-rule="evenodd" fill="#74F7F3" d="M56.398,33.92c0.958-0.935,1.886-1.9,2.882-2.794
				c0.991-0.889,6.161,1.659,7.194,2.635c2.625,2.49,5.024,5.188,7.315,7.991c3.617,4.421,6.401,9.354,8.938,14.438
				c1.997,4.011,1.491,5.664-1.214,8.654c-2.68,2.961-6.203,4.558-9.86,5.889c-3.987,1.453-8.2,2.076-12.357,2.449
				c-4.66,0.417-9.391,0.177-14.092,0.087c-4.357-0.086-8.593-0.885-12.74-1.989c-4.846-1.291-9.321-3.471-12.603-7.492
				c-2.042-2.507-2.125-5.674-0.448-8.427c1.367-2.242,2.579-4.576,3.952-6.817c1.63-2.663,3.232-5.354,5.64-7.434
				c2.43-2.096,4.359-2.207,6.953-0.337c0.417,0.3,0.833,0.6,1.248,0.898c1.13,1.194,2.206,2.447,3.4,3.568
				c2.269,2.126,3.857,2.129,6.164,0.068c0.845-0.749,1.65-1.559,2.368-2.426C51.586,39.916,53.984,36.912,56.398,33.92z
				 M59.137,35.485c0.014,0.041,0.026,0.082,0.036,0.121c0.072-0.029,0.141-0.056,0.205-0.097c0.013-0.005-0.021-0.078-0.033-0.12
				C59.276,35.421,59.209,35.453,59.137,35.485z"/>
			<path fill-rule="evenodd" fill="#FEFEFE" d="M56.398,33.92c-2.414,2.992-4.812,5.996-7.261,8.962
				c-0.718,0.867-1.523,1.677-2.368,2.426c-2.307,2.062-3.895,2.059-6.164-0.068c-1.194-1.122-2.27-2.374-3.4-3.568
				c1.294-2.075,2.396-4.274,4.39-5.845c4.333-3.414,9.084-4.19,14.274-2.433C56.081,33.466,56.223,33.742,56.398,33.92z"/>
			<path fill-rule="evenodd" fill="#ADE0EA" d="M59.137,35.485c0.072-0.032,0.14-0.063,0.208-0.097
				c0.013,0.042,0.046,0.115,0.033,0.12c-0.064,0.041-0.133,0.068-0.205,0.097C59.163,35.566,59.15,35.526,59.137,35.485z"/>
		</g>
	</g>
</g>
</svg>
